<?xml version="1.0" encoding="UTF-8"?>
<svg version="1.1" viewBox="0 0 45 45" xmlns="http://www.w3.org/2000/svg">
<g>
<title>Layer 1</title>
<g transform="matrix(.17912 0 0 .17912 -11.863 11.248)">
<svg x="-5.3821" y="-60.918" width="395.52" height="247.2" viewBox="0 0 395.52 247.2">
<svg/>
<svg width="395.52" height="247.2" viewBox="0 0 395.52 247.2">
<mask id="a">
<rect width="640" height="400" fill="#fff"/>
<svg x="130.81" y="37.08" width="133.9" height="173.04" viewBox="0 0 133.89678627145085 173.04">
<svg width="133.9" height="173.04" viewBox="0 0 133.89678627145085 173.04">
<svg width="133.9" height="173.04" viewBox="0 0 133.89678627145085 173.04">
<svg width="133.9" height="173.04" viewBox="0 0 133.89678627145085 173.04">
<svg width="133.9" height="173.04" viewBox="0 0 133.89678627145085 173.04">
<svg width="133.9" height="173.04" viewBox="0 0 133.89678627145085 173.04">
<svg width="133.9" height="173.04" data-palette-color="#000000" viewBox="-0.7 -32.05 25.8 33.05">
<path class="wordmark-text-0" d="m19.5-16.1 4.6 16.1h-9.75l-2.1-9.9h-0.4l-2.35 9.9h-9.2l4.85-16.1-4.45-14.95h10.1l1.7 9.2h0.4l1.85-9.2h8.8l-4.05 14.95z" stroke="#000" stroke-linejoin="round"/>
</svg>
</svg>
</svg>
</svg>
</svg>
</svg>
</svg>
</mask>
<svg x="130.81" y="37.08" width="133.9" height="173.04" viewBox="0 0 133.89678627145085 173.04">
<svg width="133.9" height="173.04" viewBox="0 0 133.89678627145085 173.04">
<svg width="133.9" height="173.04" viewBox="0 0 133.89678627145085 173.04">
<svg width="133.9" height="173.04" viewBox="0 0 133.89678627145085 173.04">
<svg width="133.9" height="173.04" viewBox="0 0 133.89678627145085 173.04">
<svg width="133.9" height="173.04" viewBox="0 0 133.89678627145085 173.04">
<svg width="133.9" height="173.04" data-palette-color="#000000" viewBox="-0.7 -32.05 25.8 33.05">
<path class="wordmark-text-0" d="m19.5-16.1 4.6 16.1h-9.75l-2.1-9.9h-0.4l-2.35 9.9h-9.2l4.85-16.1-4.45-14.95h10.1l1.7 9.2h0.4l1.85-9.2h8.8l-4.05 14.95z" data-fill-palette-color="primary"/>
</svg>
</svg>
</svg>
</svg>
</svg>
</svg>
</svg>
<g mask="url(#a)">
<g transform="matrix(2.7462 0 0 2.7462 75.166 1)">
<svg class="icon-none" width="89.283" height="89.288" enable-background="new 0 0 90 90" fill="#aaa" data-fill-palette-color="accent" version="1.1" viewBox="0.35833249999999595 0.3587183000000067 89.28326340000001 89.2876563" xml:space="preserve" xmlns="http://www.w3.org/2000/svg" xmlns:xlink="http://www.w3.org/1999/xlink">
        <polygon points="57.928 58.169 57.875 76.027 45.397 63.548 45.397 45.639" data-fill-palette-color="accent"/>
        <polygon points="76.027 57.875 58.475 57.927 45.826 45.279 63.432 45.279" data-fill-palette-color="accent"/>
        <polygon points="76.027 32.125 63.432 44.721 45.707 44.721 58.355 32.073" data-fill-palette-color="accent"/>
        <polygon points="44.838 45.59 44.838 63.314 32.125 76.027 32.074 58.355" data-fill-palette-color="accent"/>
        <polygon points="57.928 31.712 45.397 44.243 45.397 26.452 57.875 13.974" data-fill-palette-color="accent"/>
        <polygon points="44.838 26.687 44.838 44.291 32.074 31.526 32.125 13.974" data-fill-palette-color="accent"/>
        <polygon points="44.479 44.721 26.569 44.721 13.974 32.125 31.832 32.073" data-fill-palette-color="accent"/>
        <polygon points="44.36 45.279 31.712 57.927 13.974 57.875 26.569 45.279" data-fill-palette-color="accent"/>
        <rect x="58.48" y="58.48" width="18.049" height="18.049" data-fill-palette-color="accent"/>
        <polygon points="76.527 13.474 76.527 31.516 58.914 31.516 58.912 31.518 58.484 31.516 58.484 13.474" data-fill-palette-color="accent"/>
        <polygon points="31.518 30.971 31.516 31.516 13.474 31.516 13.474 13.474 31.516 13.474 31.516 30.968" data-fill-palette-color="accent"/>
        <rect x="13.471" y="58.48" width="18.05" height="18.049" data-fill-palette-color="accent"/>
        <rect transform="matrix(.7071 -.7071 .7071 .7071 -9.3022 67.546)" x="67.864" y="35.981" width="18.042" height="18.042" data-fill-palette-color="accent"/>
        <rect transform="matrix(.7071 -.7071 .7071 .7071 3.9068 35.662)" x="35.979" y="4.094" width="18.042" height="18.042" data-fill-palette-color="accent"/>
        <rect transform="matrix(.7071 -.7071 .7071 .7071 -27.979 22.454)" x="4.095" y="35.98" width="18.041" height="18.041" data-fill-palette-color="accent"/>
        <rect transform="matrix(.7071 -.7071 .7071 .7071 -41.188 54.344)" x="35.98" y="67.865" width="18.04" height="18.041" data-fill-palette-color="accent"/>
       </svg>
</g>
</g>
</svg>
</svg>
</g>
<rect x="1493.9" y="797.7" width="0" height="1.5385" fill="#fff" stroke="#000"/>
</g>
</svg>
